<?xml version="1.0" encoding="utf-8"?>
<!-- Generator: Adobe Illustrator 18.1.1, SVG Export Plug-In . SVG Version: 6.00 Build 0)  -->
<svg version="1.1" id="Layer_1" xmlns="http://www.w3.org/2000/svg" xmlns:xlink="http://www.w3.org/1999/xlink" x="0px" y="0px"
     viewBox="0 0 235.9 205.7" enable-background="new 0 0 235.9 205.7" xml:space="preserve">
<path fill="#FFFFFF" d="M233.3,135.2c0,0-0.5,0.7-1.4,2c-0.9,1.3-2.4,3.2-4.5,5.4c-2.1,2.1-4.8,4.6-8.3,6.9
    c-3.5,2.3-7.7,4.4-12.5,6.1c-9.7,3.4-21.9,4.8-34.9,4.2c-13.1-0.5-26.9-2.8-40.7-5.6c-6.9-1.5-13.9-2.9-20.7-4.4
    c-10.1-2.1-21.4-3.3-32.5-3.3c-5.3-2.7-12.1-4.8-20.9-5.9c-10.9-1.4-13.3-4.2-13.3-7.9c0-4,3.5-7.5,12.3-7.5
    c19.6,0,37-14.4,39.6-30.3c1.5-8.5,0.9-16.4-6.1-23.7c9.7-4.4,13.1-1.8,14,0.7c1,2.8,2.3,5.2,5.4,5.8c3.2,0.6,5.6-0.7,7.2-2.8
    l-8,45.4c-3,16.8,3.5,26.3,17.5,26.3c11.9,0,19.3-4.4,25.8-11l-2.2-5.8c-6.1,5.6-8.5,5.8-11.6,5.8c-5.6,0-7.2-4.7-5.4-14.9l8.4-46.4
    h18.8l-5.8,32.8c-3.7,21.7,3.5,40.1,31.7,40.1c23.1,0,43.6-19.3,47.5-42.9c4-23.3-7.2-42.4-30.7-42.4c-5.4,0-13,2.3-17,5.1L197,0
    l-38.7,4.4l-0.9,6.1c11.6,0,12.8,2.1,9.1,24l-5.6,31.7H142l6.5-37.3h-24.5l-6.5,37.1c-2.4-8.8-16.3-9.3-33.7,1c0,0,0,0,0,0
    c-4.2-2.4-9.6-4.6-16.6-4.6c-19.6,0-36.6,14-39.6,30.3c-1.6,8.2-0.7,21.7,13.5,28.9c-10.9,2.3-20.3,8.8-20.3,19.3
    c0,4.2,1.4,8.1,4.7,11.4C2.5,160.3,0,174.4,0,179.9l0,0c0,0.4,0,0.8,0,1.2c1.2,14.5,18.7,20.1,30.5,22.9c0,0,0,0,0,0
    c4.5,1.1,9.5,1.7,14.9,1.7c25.9,0,47.5-14.9,48.2-35.2c0.1-3.2-0.6-7.1-1.8-10c6-0.1,9.6-0.2,18.1,1.1c6.9,1.1,12.1,2.2,19.1,3.5
    c7.1,1.3,14.3,2.2,21.4,2.9c7.1,0.7,14.2,1.2,21.1,1c6.9-0.2,13.6-0.7,20-1.9c6.3-1.2,12.2-3,17.4-5.2c5.2-2.3,9.6-5.2,13.2-8
    c3.6-2.9,6.3-5.9,8.4-8.4c2-2.6,3.3-4.8,4.1-6.3c0.8-1.5,1.3-2.3,1.3-2.3L233.3,135.2z M177.2,111.8l5.8-33.1c2.8-4.4,6.8-7,12.8-7
    c11.4,0,14.2,14.2,10.9,32.6c-4,21.9-10,33.3-20.3,33.3C179.3,137.7,173.7,131.4,177.2,111.8z M52.1,93.9c3.3-18.2,7.7-24.2,14-24.2
    c5.1,0,8.4,6.1,5.1,24.2c-3.3,17.9-7.9,24.2-13.7,24.2C51.9,118.1,48.8,111.8,52.1,93.9z M76.8,177.5c-0.2,9.1-10.5,18.9-30.3,18.9
    c-13.3,0-27.7-6.3-25.9-18.2l0,0c2-9.2,13.3-13.8,27.1-15.7c0,0,1.9-0.3,5.6,0.2C72.7,165.1,77,171.4,76.8,177.5z"/>
</svg>
